<?xml version="1.0" encoding="utf-8"?>
<!-- Generator: Adobe Illustrator 19.0.0, SVG Export Plug-In . SVG Version: 6.00 Build 0)  -->
<svg version="1.1" id="Layer_1" xmlns="http://www.w3.org/2000/svg" xmlns:xlink="http://www.w3.org/1999/xlink" x="0px" y="0px"
	 viewBox="0 0 489 216" style="enable-background:new 0 0 489 216;" xml:space="preserve">
<style type="text/css">
	.st0{fill:#FFFFFF;}
</style>
<g id="XMLID_1_">
	<path id="XMLID_2_" class="st0" d="M135.8,115.7c0,46.3-22.4,46.3-59.4,46.3c-37,0-59.6,0-59.6-46.3v-1.5H4.9v1.5
		c0,58.5,36.4,58.5,71.6,58.5c35.2,0,71.6,0,71.6-58.5V60.1h-12.2V115.7z"/>
	<path id="XMLID_3_" class="st0" d="M244.5,57.2c-35.2,0-71.6,0-71.6,58.5c0,58.5,36.4,58.5,71.6,58.5c35.2,0,71.6,0,71.6-58.5
		C316.1,57.2,279.7,57.2,244.5,57.2z M244.5,162c-37,0-59.4,0-59.4-46.3s22.3-46.3,59.4-46.3c37,0,59.4,0,59.4,46.3
		S281.5,162,244.5,162z"/>
	<path id="XMLID_6_" class="st0" d="M472.3,60.1v55.6c0,46.3-22.4,46.3-59.4,46.3c-37,0-59.4,0-59.4-46.3V60.1h-12.2v55.6
		c0,57.3,35.8,58.4,65.2,58.5v38.3h12.2v-38.3c37.4-0.2,65.8-5.2,65.8-58.5V60.1H472.3z"/>
	<path id="XMLID_7_" class="st0" d="M159.8,6.1V29c0,0,0,0.6-0.3,1c-0.3,0.3-0.7,0.4-1.3,0.4h-8.7c-0.4,0-0.9-0.1-1.2-0.3
		c-0.2-0.3-0.2-0.7-0.2-0.8V6.1h-12.4l0,22.8c0,0,0,0.7-0.4,1.1c-0.2,0.2-0.6,0.4-1.1,0.4h-8.7c-0.7,0-1.1-0.2-1.4-0.4
		c-0.4-0.4-0.3-1-0.3-1.1V6.1h-11v20.7c0,7.6,6.2,13.8,13.8,13.8H158c7.6,0,13.8-6.2,13.8-13.8V6.1H159.8z"/>
</g>
</svg>
